<svg xmlns="http://www.w3.org/2000/svg" xmlns:xlink="http://www.w3.org/1999/xlink" viewBox="0 0 614.57 439.06"><defs><style>.a{fill:none;}.b{fill:#99c93e;}.c{fill:#9aca3c;}.d{clip-path:url(#a);}.e{clip-path:url(#b);}.f,.g,.h,.i{fill:#5c843a;}.g{opacity:0.7;}.h{opacity:0.5;}.i{opacity:0.2;}.j{fill:#fff;}.k{fill:#efecea;}</style><clipPath id="a" transform="translate(-2.72 103)"><path class="a" d="M125.94,161.6c2.25-1.61,3.73-2.61,5.15-3.69a20.11,20.11,0,0,0,7.77-20.69c-1.2-4.9-4.54-7.71-9-9.31a27.21,27.21,0,0,0-16.81-.45c-9.47,2.61-19,5-28.95,4.29l-1.72-.1c14.09-11.73,10.71-25.3,2.72-34.71-8.4-9.9-23.44-15.85-35.8-4,2.48-6.25,1.51-12.73,1.69-19.14,0.16-5.84,3.37-8,9-6.12a61.26,61.26,0,0,1,15.13,7.8c4.26,2.9,8.23,6.27,13.29,7.87,11.76,3.72,21.91-1.91,24.9-13.93,3.09-12.41-1.23-24.7-10.67-29.5a29.56,29.56,0,0,0-17.82-2.62c3-8,8.75-10.63,17.32-8a71.9,71.9,0,0,1,12.76,5.51,50.18,50.18,0,0,0,15.44,5,12.12,12.12,0,0,0,12.23-5.06c3.1-4.23,3.23-8.84,1-13.51-0.63-1.3-1.4-2.53-2.39-4.29,10.35,1.12,18.52,5.28,24.95,12.88C179,45,185.14,63,187.4,82.4c1.87,16.1,1.45,32-4.69,47.37-5.79,14.47-14.48,26.31-30,31.39C144.27,163.93,135.61,163.23,125.94,161.6Z"/></clipPath><clipPath id="b" transform="translate(-2.72 103)"><rect class="a" x="-3.78" y="-90.82" width="276.49" height="414.74"/></clipPath></defs><title>logofront</title><path class="b" d="M2.72,89.57l20.07,2.74c0.26,0,.52.15,0.78,0.17,10.12,0.85,16.83.89,15.57-13.5A29.23,29.23,0,0,1,39.44,71c2.43-13,11.14-18.33,23.91-14.48A67.76,67.76,0,0,1,83.39,67c2.8,2,5.53,4.18,8.84,5.32,4.59,1.59,8.25-.26,9.66-4.87a18,18,0,0,0-.4-11.73c-2.1-5.75-7.52-8-15.71-6.58-3.39.61-6.74,1.44-10.08,2.3s-6.36,1.82-10.33,3C69.66,42.13,72.09,29.55,82.6,21.2c8-6.33,16.93-5.38,25.74-2.1,6.08,2.26,11.87,5.3,17.92,7.68,2.06,0.81,5.4,2.73,6.48.63,1.19-2.3-2.16-4.17-4.07-5.62-7.07-5.39-15.44-7.45-24-8.82a13.64,13.64,0,0,1-5.07-1.42c13.31-2.33,25.76-6.88,39.07-6.46,14.7,0.46,27,6,36.59,17.33C190.18,40,196.88,60.85,199.41,83.27c2.2,19.46.39,38.48-8.13,56.42-8.22,17.31-20.68,29.82-40,34-9.22,2-18.48,1.43-27.65-.62-16.66-3.72-31.16-12.45-46.13-20.36,7.7,0.53,15.39,1.12,23.09,1.56,5.59,0.32,11.17.28,16.52-1.77,3.66-1.4,7-3.32,9.2-6.67,1.12-1.69,2.18-3.57,1.12-5.56s-3-1.92-4.9-2c-4.46-.25-8.67,1-12.89,2.16-10.19,2.89-20.5,4.3-31.08,2.65-9.62-1.5-15.09-8.29-20-15.7-1.21-1.82.52-1.78,1.68-2,3.54-.55,7.14-0.86,10.6-1.73,9.8-2.44,12.38-10.59,5.94-18.41A21.14,21.14,0,0,0,70,99.74c-5.26-2.68-8.37-2-12.13,2.58-5.45,6.69-11.68,12-21,12.12-5.9.09-10.92-2.18-15.38-5.69C14.54,103.24,8.82,96.41,2.72,89.57ZM125.34,12.49c4.95,2.46,9,5.13,12,9.12,2.19,2.95,3.37,6.22,1,9.58-2.25,3.21-5.42,3.65-9.21,2.89-7.7-1.55-14.18-6-21.39-8.62-5-1.85-10-3.45-15.51-2.16-6.5,1.54-16.29,13.34-16.57,20-0.08,1.93.94,1.4,2,1.12a46.35,46.35,0,0,1,13-1.74C100,42.88,105.9,47.2,108,55.56a26.65,26.65,0,0,1,.1,12.66C106,77.18,98,81.31,89.43,78c-4.25-1.66-7.73-4.62-11.45-7.17-5.62-3.84-11.5-7.2-18.19-8.76-7.54-1.76-12,1.12-13.88,8.59C45,74,45.33,77.5,45.52,80.92c0.74,13.9-7.69,19.41-20.44,17.89A16.75,16.75,0,0,0,19,98.65c3,2.43,5.24,4.56,7.77,6.17,8.38,5.31,15.52,4.53,22.67-2.39,2.09-2,3.8-4.43,5.82-6.52C58.76,92.25,63,91.29,68,92.44c5.88,1.37,10.35,4.8,14,9.34,8.88,11.1,4.39,24.17-9.4,27.77-1.19.31-2.36,0.7-3.69,1.1a16.57,16.57,0,0,0,12.2,6.56c8.09,0.58,16.18.37,24.07-2A66.6,66.6,0,0,1,119.9,132c4.89-.33,9.87.33,12.81,4.78s1.12,9-1.45,13.07a16.77,16.77,0,0,1-4.53,4.43c-5.67,4.14-12.16,5.91-20,6.56,8.69,3.83,16.74,6.44,25.2,7.37,15.52,1.71,29.65-1.54,41-13,13.62-13.69,19.25-30.92,20.67-49.63a122,122,0,0,0-8.14-53.87c-4.64-12-11.05-22.79-20.85-31.08C153.41,11.2,140.06,9.87,125.34,12.49Z" transform="translate(-2.72 103)"/><path class="c" d="M125.94,161.66c2.25-1.61,3.73-2.61,5.15-3.69a20.11,20.11,0,0,0,7.77-20.69c-1.2-4.9-4.54-7.71-9-9.31a27.21,27.21,0,0,0-16.81-.45c-9.47,2.61-19,5-28.95,4.29l-1.72-.1C96.51,120,93.13,106.4,85.14,97c-8.4-9.9-23.44-15.85-35.8-4C51.82,86.78,50.85,80.3,51,73.89c0.16-5.84,3.37-8,9-6.12a61.26,61.26,0,0,1,15.13,7.8c4.26,2.9,8.23,6.27,13.29,7.87,11.76,3.72,21.91-1.91,24.9-13.93,3.09-12.41-1.23-24.7-10.67-29.5A29.56,29.56,0,0,0,84.87,37.4c3-8,8.75-10.63,17.32-8a71.9,71.9,0,0,1,12.76,5.51,50.18,50.18,0,0,0,15.44,5,12.12,12.12,0,0,0,12.23-5.06c3.1-4.23,3.23-8.84,1-13.51-0.63-1.3-1.4-2.53-2.39-4.29,10.35,1.12,18.52,5.28,24.95,12.88C179,45.05,185.14,63,187.4,82.45c1.87,16.1,1.45,32-4.69,47.37-5.79,14.47-14.48,26.31-30,31.39C144.27,164,135.61,163.29,125.94,161.66Z" transform="translate(-2.72 103)"/><g class="d"><g class="e"><polygon class="f" points="326.33 97.57 312.25 89.44 326.33 81.31 326.33 97.57"/><polygon class="f" points="326.33 113.83 312.25 105.7 326.33 97.57 326.33 113.83"/><polygon class="f" points="326.33 130.09 312.25 121.96 326.33 113.83 326.33 130.09"/><polygon class="f" points="326.33 146.35 312.25 138.22 326.33 130.09 326.33 146.35"/><polygon class="f" points="326.33 162.61 312.25 154.48 326.33 146.35 326.33 162.61"/><polygon class="f" points="326.33 178.88 312.25 170.75 326.33 162.62 326.33 178.88"/><polygon class="f" points="326.33 195.14 312.25 187.01 326.33 178.88 326.33 195.14"/><polygon class="f" points="326.33 211.4 312.25 203.27 326.33 195.14 326.33 211.4"/><polygon class="f" points="326.33 227.66 312.25 219.53 326.33 211.4 326.33 227.66"/><polygon class="f" points="326.33 243.92 312.25 235.79 326.33 227.66 326.33 243.92"/><polygon class="f" points="326.33 260.18 312.25 252.05 326.33 243.92 326.33 260.18"/><polygon class="f" points="326.33 276.44 312.25 268.31 326.33 260.18 326.33 276.44"/><polygon class="f" points="326.33 292.71 312.25 284.58 326.33 276.44 326.33 292.71"/><polygon class="f" points="326.33 308.97 312.25 300.84 326.33 292.71 326.33 308.97"/><polygon class="f" points="326.33 325.23 312.25 317.1 326.33 308.97 326.33 325.23"/><polygon class="f" points="326.33 341.49 312.25 333.36 326.33 325.23 326.33 341.49"/><polygon class="f" points="326.33 357.75 312.25 349.62 326.33 341.49 326.33 357.75"/><polygon class="f" points="312.25 73.18 326.33 81.31 312.25 89.44 312.25 73.18"/><polygon class="f" points="312.25 89.44 298.17 81.31 312.25 73.18 312.25 89.44"/><polygon class="f" points="312.25 89.44 326.33 97.57 312.25 105.7 312.25 89.44"/><polygon class="f" points="312.25 105.7 298.17 97.57 312.25 89.44 312.25 105.7"/><polygon class="f" points="312.25 105.7 326.33 113.83 312.25 121.96 312.25 105.7"/><polygon class="f" points="312.25 121.96 298.17 113.83 312.25 105.7 312.25 121.96"/><polygon class="f" points="312.25 121.96 326.33 130.09 312.25 138.22 312.25 121.96"/><polygon class="f" points="312.25 138.22 298.17 130.09 312.25 121.96 312.25 138.22"/><polygon class="f" points="312.25 138.22 326.33 146.35 312.25 154.48 312.25 138.22"/><polygon class="f" points="312.25 154.48 298.17 146.35 312.25 138.22 312.25 154.48"/><polygon class="f" points="312.25 154.48 326.33 162.61 312.25 170.74 312.25 154.48"/><polygon class="f" points="312.25 170.75 298.17 162.61 312.25 154.48 312.25 170.75"/><polygon class="f" points="312.25 170.75 326.33 178.88 312.25 187.01 312.25 170.75"/><polygon class="f" points="312.25 187.01 298.17 178.88 312.25 170.75 312.25 187.01"/><polygon class="f" points="312.25 187.01 326.33 195.14 312.25 203.27 312.25 187.01"/><polygon class="f" points="312.25 203.27 298.17 195.14 312.25 187.01 312.25 203.27"/><polygon class="f" points="312.25 203.27 326.33 211.4 312.25 219.53 312.25 203.27"/><polygon class="f" points="312.25 219.53 298.17 211.4 312.25 203.27 312.25 219.53"/><polygon class="f" points="312.25 219.53 326.33 227.66 312.25 235.79 312.25 219.53"/><polygon class="f" points="312.25 235.79 298.17 227.66 312.25 219.53 312.25 235.79"/><polygon class="f" points="312.25 235.79 326.33 243.92 312.25 252.05 312.25 235.79"/><polygon class="f" points="312.25 252.05 298.17 243.92 312.25 235.79 312.25 252.05"/><polygon class="f" points="312.25 252.05 326.33 260.18 312.25 268.31 312.25 252.05"/><polygon class="f" points="312.25 268.31 298.17 260.18 312.25 252.05 312.25 268.31"/><polygon class="f" points="312.25 268.31 326.33 276.44 312.25 284.57 312.25 268.31"/><polygon class="f" points="312.25 284.57 298.17 276.44 312.25 268.31 312.25 284.57"/><polygon class="f" points="312.25 284.57 326.33 292.71 312.25 300.84 312.25 284.57"/><polygon class="f" points="312.25 300.84 298.17 292.71 312.25 284.58 312.25 300.84"/><polygon class="f" points="312.25 300.84 326.33 308.97 312.25 317.1 312.25 300.84"/><polygon class="f" points="312.25 317.1 298.17 308.97 312.25 300.84 312.25 317.1"/><polygon class="f" points="312.25 317.1 326.33 325.23 312.25 333.36 312.25 317.1"/><polygon class="f" points="312.25 333.36 298.17 325.23 312.25 317.1 312.25 333.36"/><polygon class="f" points="312.25 333.36 326.33 341.49 312.25 349.62 312.25 333.36"/><polygon class="f" points="312.25 349.62 298.17 341.49 312.25 333.36 312.25 349.62"/><polygon class="f" points="312.25 349.62 326.33 357.75 312.25 365.88 312.25 349.62"/><polygon class="f" points="312.25 365.88 298.17 357.75 312.25 349.62 312.25 365.88"/><polygon class="f" points="298.2 81.31 312.28 89.44 298.2 97.57 298.2 81.31"/><polygon class="f" points="298.2 97.57 284.11 89.44 298.2 81.31 298.2 97.57"/><polygon class="f" points="298.2 97.57 312.28 105.7 298.2 113.83 298.2 97.57"/><polygon class="f" points="298.2 113.83 284.11 105.7 298.2 97.57 298.2 113.83"/><polygon class="f" points="298.2 113.83 312.28 121.96 298.2 130.09 298.2 113.83"/><polygon class="f" points="298.2 130.09 284.11 121.96 298.2 113.83 298.2 130.09"/><polygon class="f" points="298.2 130.09 312.28 138.22 298.2 146.35 298.2 130.09"/><polygon class="f" points="298.2 146.35 284.11 138.22 298.2 130.09 298.2 146.35"/><polygon class="f" points="298.2 146.35 312.28 154.48 298.2 162.61 298.2 146.35"/><polygon class="f" points="298.2 162.61 284.11 154.48 298.2 146.35 298.2 162.61"/><polygon class="f" points="298.2 162.61 312.28 170.75 298.2 178.88 298.2 162.61"/><polygon class="f" points="298.2 178.88 284.11 170.75 298.2 162.62 298.2 178.88"/><polygon class="f" points="298.2 178.88 312.28 187.01 298.2 195.14 298.2 178.88"/><polygon class="f" points="298.2 195.14 284.11 187.01 298.2 178.88 298.2 195.14"/><polygon class="f" points="298.2 195.14 312.28 203.27 298.2 211.4 298.2 195.14"/><polygon class="f" points="298.2 211.4 284.11 203.27 298.2 195.14 298.2 211.4"/><polygon class="g" points="298.2 211.4 312.28 219.53 298.2 227.66 298.2 211.4"/><polygon class="f" points="298.2 227.66 284.11 219.53 298.2 211.4 298.2 227.66"/><polygon class="f" points="298.2 227.66 312.28 235.79 298.2 243.92 298.2 227.66"/><polygon class="f" points="298.2 243.92 284.11 235.79 298.2 227.66 298.2 243.92"/><polygon class="f" points="298.2 243.92 312.28 252.05 298.2 260.18 298.2 243.92"/><polygon class="f" points="298.2 260.18 284.11 252.05 298.2 243.92 298.2 260.18"/><polygon class="g" points="298.2 260.18 312.28 268.31 298.2 276.44 298.2 260.18"/><polygon class="f" points="298.2 276.44 284.11 268.31 298.2 260.18 298.2 276.44"/><polygon class="f" points="298.2 276.44 312.28 284.57 298.2 292.71 298.2 276.44"/><polygon class="f" points="298.2 292.71 284.11 284.58 298.2 276.44 298.2 292.71"/><polygon class="f" points="298.2 292.71 312.28 300.84 298.2 308.97 298.2 292.71"/><polygon class="f" points="298.2 308.97 284.11 300.84 298.2 292.71 298.2 308.97"/><polygon class="f" points="298.2 308.97 312.28 317.1 298.2 325.23 298.2 308.97"/><polygon class="f" points="298.2 325.23 284.11 317.1 298.2 308.97 298.2 325.23"/><polygon class="f" points="298.2 325.23 312.28 333.36 298.2 341.49 298.2 325.23"/><polygon class="f" points="298.2 341.49 284.11 333.36 298.2 325.23 298.2 341.49"/><polygon class="f" points="298.2 341.49 312.28 349.62 298.2 357.75 298.2 341.49"/><polygon class="f" points="298.2 357.75 284.11 349.62 298.2 341.49 298.2 357.75"/><polygon class="f" points="284.11 73.18 298.2 81.31 284.11 89.44 284.11 73.18"/><polygon class="f" points="284.11 89.44 270.03 81.31 284.11 73.18 284.11 89.44"/><polygon class="f" points="284.11 89.44 298.2 97.57 284.11 105.7 284.11 89.44"/><polygon class="f" points="284.11 105.7 270.03 97.57 284.11 89.44 284.11 105.7"/><polygon class="f" points="284.11 105.7 298.2 113.83 284.11 121.96 284.11 105.7"/><polygon class="f" points="284.11 121.96 270.03 113.83 284.11 105.7 284.11 121.96"/><polygon class="f" points="284.11 121.96 298.2 130.09 284.11 138.22 284.11 121.96"/><polygon class="g" points="284.11 138.22 270.03 130.09 284.11 121.96 284.11 138.22"/><polygon class="f" points="284.11 138.22 298.2 146.35 284.11 154.48 284.11 138.22"/><polygon class="f" points="284.11 154.48 270.03 146.35 284.11 138.22 284.11 154.48"/><polygon class="f" points="284.11 154.48 298.2 162.61 284.11 170.74 284.11 154.48"/><polygon class="f" points="284.11 170.75 270.03 162.61 284.11 154.48 284.11 170.75"/><polygon class="f" points="284.11 170.75 298.2 178.88 284.11 187.01 284.11 170.75"/><polygon class="f" points="284.11 187.01 270.03 178.88 284.11 170.75 284.11 187.01"/><polygon class="f" points="284.11 187.01 298.2 195.14 284.11 203.27 284.11 187.01"/><polygon class="f" points="284.11 203.27 270.03 195.14 284.11 187.01 284.11 203.27"/><polygon class="f" points="284.11 203.27 298.2 211.4 284.11 219.53 284.11 203.27"/><polygon class="f" points="284.11 219.53 270.03 211.4 284.11 203.27 284.11 219.53"/><polygon class="f" points="284.11 219.53 298.2 227.66 284.11 235.79 284.11 219.53"/><polygon class="f" points="284.11 235.79 270.03 227.66 284.11 219.53 284.11 235.79"/><polygon class="g" points="284.11 235.79 298.2 243.92 284.11 252.05 284.11 235.79"/><polygon class="f" points="284.11 252.05 270.03 243.92 284.11 235.79 284.11 252.05"/><polygon class="f" points="284.11 252.05 298.2 260.18 284.11 268.31 284.11 252.05"/><polygon class="f" points="284.11 268.31 270.03 260.18 284.11 252.05 284.11 268.31"/><polygon class="f" points="284.11 268.31 298.2 276.44 284.11 284.57 284.11 268.31"/><polygon class="f" points="284.11 284.57 270.03 276.44 284.11 268.31 284.11 284.57"/><polygon class="f" points="284.11 284.57 298.2 292.71 284.11 300.84 284.11 284.57"/><polygon class="f" points="284.11 300.84 270.03 292.71 284.11 284.58 284.11 300.84"/><polygon class="f" points="284.11 300.84 298.2 308.97 284.11 317.1 284.11 300.84"/><polygon class="f" points="284.11 317.1 270.03 308.97 284.11 300.84 284.11 317.1"/><polygon class="f" points="284.11 317.1 298.2 325.23 284.11 333.36 284.11 317.1"/><polygon class="f" points="284.11 333.36 270.03 325.23 284.11 317.1 284.11 333.36"/><polygon class="f" points="284.11 333.36 298.2 341.49 284.11 349.62 284.11 333.36"/><polygon class="f" points="284.11 349.62 270.03 341.49 284.11 333.36 284.11 349.62"/><polygon class="f" points="284.11 349.62 298.2 357.75 284.11 365.88 284.11 349.62"/><polygon class="f" points="284.11 365.88 270.03 357.75 284.11 349.62 284.11 365.88"/><polygon class="f" points="270.04 81.31 284.12 89.44 270.04 97.57 270.04 81.31"/><polygon class="f" points="270.04 97.57 255.96 89.44 270.04 81.31 270.04 97.57"/><polygon class="f" points="270.04 97.57 284.12 105.7 270.04 113.83 270.04 97.57"/><polygon class="f" points="270.04 113.83 255.96 105.7 270.04 97.57 270.04 113.83"/><polygon class="f" points="270.04 113.83 284.12 121.96 270.04 130.09 270.04 113.83"/><polygon class="f" points="270.04 130.09 255.96 121.96 270.04 113.83 270.04 130.09"/><polygon class="f" points="270.04 130.09 284.12 138.22 270.04 146.35 270.04 130.09"/><polygon class="f" points="270.04 146.35 255.96 138.22 270.04 130.09 270.04 146.35"/><polygon class="f" points="270.04 146.35 284.12 154.48 270.04 162.61 270.04 146.35"/><polygon class="h" points="270.04 162.61 255.96 154.48 270.04 146.35 270.04 162.61"/><polygon class="f" points="270.04 162.61 284.12 170.75 270.04 178.88 270.04 162.61"/><polygon class="f" points="270.04 178.88 255.96 170.75 270.04 162.62 270.04 178.88"/><polygon class="g" points="270.04 178.88 284.12 187.01 270.04 195.14 270.04 178.88"/><polygon class="f" points="270.04 195.14 255.96 187.01 270.04 178.88 270.04 195.14"/><polygon class="f" points="270.04 195.14 284.12 203.27 270.04 211.4 270.04 195.14"/><polygon class="f" points="270.04 211.4 255.96 203.27 270.04 195.14 270.04 211.4"/><polygon class="g" points="270.04 211.4 284.12 219.53 270.04 227.66 270.04 211.4"/><polygon class="f" points="270.04 227.66 255.96 219.53 270.04 211.4 270.04 227.66"/><polygon class="f" points="270.04 227.66 284.12 235.79 270.04 243.92 270.04 227.66"/><polygon class="g" points="270.04 243.92 255.96 235.79 270.04 227.66 270.04 243.92"/><polygon class="g" points="270.04 243.92 284.12 252.05 270.04 260.18 270.04 243.92"/><polygon class="f" points="270.04 260.18 255.96 252.05 270.04 243.92 270.04 260.18"/><polygon class="f" points="270.04 260.18 284.12 268.31 270.04 276.44 270.04 260.18"/><polygon class="g" points="270.04 276.44 255.96 268.31 270.04 260.18 270.04 276.44"/><polygon class="f" points="270.04 276.44 284.12 284.57 270.04 292.71 270.04 276.44"/><polygon class="f" points="270.04 292.71 255.96 284.58 270.04 276.44 270.04 292.71"/><polygon class="f" points="270.04 292.71 284.12 300.84 270.04 308.97 270.04 292.71"/><polygon class="f" points="270.04 308.97 255.96 300.84 270.04 292.71 270.04 308.97"/><polygon class="f" points="270.04 308.97 284.12 317.1 270.04 325.23 270.04 308.97"/><polygon class="f" points="270.04 325.23 255.96 317.1 270.04 308.97 270.04 325.23"/><polygon class="f" points="270.04 325.23 284.12 333.36 270.04 341.49 270.04 325.23"/><polygon class="f" points="270.04 341.49 255.96 333.36 270.04 325.23 270.04 341.49"/><polygon class="f" points="270.04 341.49 284.12 349.62 270.04 357.75 270.04 341.49"/><polygon class="f" points="270.04 357.75 255.96 349.62 270.04 341.49 270.04 357.75"/><polygon class="f" points="255.96 73.18 270.04 81.31 255.96 89.44 255.96 73.18"/><polygon class="f" points="255.96 89.44 241.87 81.31 255.96 73.18 255.96 89.44"/><polygon class="h" points="255.96 89.44 270.04 97.57 255.96 105.7 255.96 89.44"/><polygon class="f" points="255.96 105.7 241.87 97.57 255.96 89.44 255.96 105.7"/><polygon class="f" points="255.96 105.7 270.04 113.83 255.96 121.96 255.96 105.7"/><polygon class="f" points="255.96 121.96 241.87 113.83 255.96 105.7 255.96 121.96"/><polygon class="f" points="255.96 121.96 270.04 130.09 255.96 138.22 255.96 121.96"/><polygon class="f" points="255.96 138.22 241.87 130.09 255.96 121.96 255.96 138.22"/><polygon class="f" points="255.96 138.22 270.04 146.35 255.96 154.48 255.96 138.22"/><polygon class="f" points="255.96 154.48 241.87 146.35 255.96 138.22 255.96 154.48"/><polygon class="g" points="255.96 154.48 270.04 162.61 255.96 170.74 255.96 154.48"/><polygon class="f" points="255.96 170.75 241.87 162.61 255.96 154.48 255.96 170.75"/><polygon class="f" points="255.96 170.75 270.04 178.88 255.96 187.01 255.96 170.75"/><polygon class="f" points="255.96 187.01 241.87 178.88 255.96 170.75 255.96 187.01"/><polygon class="f" points="255.96 187.01 270.04 195.14 255.96 203.27 255.96 187.01"/><polygon class="f" points="255.96 203.27 241.87 195.14 255.96 187.01 255.96 203.27"/><polygon class="g" points="255.96 203.27 270.04 211.4 255.96 219.53 255.96 203.27"/><polygon class="f" points="255.96 219.53 241.87 211.4 255.96 203.27 255.96 219.53"/><polygon class="h" points="255.96 219.53 270.04 227.66 255.96 235.79 255.96 219.53"/><polygon class="f" points="255.96 235.79 241.87 227.66 255.96 219.53 255.96 235.79"/><polygon class="f" points="255.96 235.79 270.04 243.92 255.96 252.05 255.96 235.79"/><polygon class="f" points="255.96 252.05 241.87 243.92 255.96 235.79 255.96 252.05"/><polygon class="f" points="255.96 252.05 270.04 260.18 255.96 268.31 255.96 252.05"/><polygon class="f" points="255.96 268.31 241.87 260.18 255.96 252.05 255.96 268.31"/><polygon class="f" points="255.96 268.31 270.04 276.44 255.96 284.57 255.96 268.31"/><polygon class="f" points="255.96 284.57 241.87 276.44 255.96 268.31 255.96 284.57"/><polygon class="f" points="255.96 284.57 270.04 292.71 255.96 300.84 255.96 284.57"/><polygon class="f" points="255.96 300.84 241.87 292.71 255.96 284.58 255.96 300.84"/><polygon class="f" points="255.96 300.84 270.04 308.97 255.96 317.1 255.96 300.84"/><polygon class="f" points="255.96 317.1 241.87 308.97 255.96 300.84 255.96 317.1"/><polygon class="f" points="255.96 317.1 270.04 325.23 255.96 333.36 255.96 317.1"/><polygon class="f" points="255.96 333.36 241.87 325.23 255.96 317.1 255.96 333.36"/><polygon class="f" points="255.96 333.36 270.04 341.49 255.96 349.62 255.96 333.36"/><polygon class="f" points="255.96 349.62 241.87 341.49 255.96 333.36 255.96 349.62"/><polygon class="f" points="255.96 349.62 270.04 357.75 255.96 365.88 255.96 349.62"/><polygon class="f" points="255.96 365.88 241.87 357.75 255.96 349.62 255.96 365.88"/><polygon class="g" points="241.87 81.31 255.95 89.44 241.87 97.57 241.87 81.31"/><polygon class="f" points="241.87 97.57 227.78 89.44 241.87 81.31 241.87 97.57"/><polygon class="f" points="241.87 97.57 255.95 105.7 241.87 113.83 241.87 97.57"/><polygon class="h" points="241.87 113.83 227.78 105.7 241.87 97.57 241.87 113.83"/><polygon class="h" points="241.87 113.83 255.95 121.96 241.87 130.09 241.87 113.83"/><polygon class="f" points="241.87 130.09 227.78 121.96 241.87 113.83 241.87 130.09"/><polygon class="f" points="241.87 130.09 255.95 138.22 241.87 146.35 241.87 130.09"/><polygon class="h" points="241.87 146.35 227.78 138.22 241.87 130.09 241.87 146.35"/><polygon class="g" points="241.87 146.35 255.95 154.48 241.87 162.61 241.87 146.35"/><polygon class="f" points="241.87 162.61 227.78 154.48 241.87 146.35 241.87 162.61"/><polygon class="g" points="241.87 162.61 255.95 170.75 241.87 178.88 241.87 162.61"/><polygon class="f" points="241.87 178.88 227.78 170.75 241.87 162.62 241.87 178.88"/><polygon class="g" points="241.87 178.88 255.95 187.01 241.87 195.14 241.87 178.88"/><polygon class="f" points="241.87 195.14 227.78 187.01 241.87 178.88 241.87 195.14"/><polygon class="g" points="241.87 195.14 255.95 203.27 241.87 211.4 241.87 195.14"/><polygon class="f" points="241.87 211.4 227.78 203.27 241.87 195.14 241.87 211.4"/><polygon class="f" points="241.87 211.4 255.95 219.53 241.87 227.66 241.87 211.4"/><polygon class="f" points="241.87 227.66 227.78 219.53 241.87 211.4 241.87 227.66"/><polygon class="g" points="241.87 227.66 255.95 235.79 241.87 243.92 241.87 227.66"/><polygon class="f" points="241.87 243.92 227.78 235.79 241.87 227.66 241.87 243.92"/><polygon class="h" points="241.87 243.92 255.95 252.05 241.87 260.18 241.87 243.92"/><polygon class="g" points="241.87 260.18 227.78 252.05 241.87 243.92 241.87 260.18"/><polygon class="g" points="241.87 260.18 255.95 268.31 241.87 276.44 241.87 260.18"/><polygon class="f" points="241.87 276.44 227.78 268.31 241.87 260.18 241.87 276.44"/><polygon class="f" points="241.87 276.44 255.95 284.57 241.87 292.71 241.87 276.44"/><polygon class="h" points="241.87 292.71 227.78 284.58 241.87 276.44 241.87 292.71"/><polygon class="g" points="241.87 292.71 255.95 300.84 241.87 308.97 241.87 292.71"/><polygon class="h" points="241.87 308.97 227.78 300.84 241.87 292.71 241.87 308.97"/><polygon class="g" points="241.87 308.97 255.95 317.1 241.87 325.23 241.87 308.97"/><polygon class="f" points="241.87 325.23 227.78 317.1 241.87 308.97 241.87 325.23"/><polygon class="f" points="241.87 325.23 255.95 333.36 241.87 341.49 241.87 325.23"/><polygon class="f" points="241.87 341.49 255.95 349.62 241.87 357.75 241.87 341.49"/><polygon class="f" points="241.87 357.75 227.78 349.62 241.87 341.49 241.87 357.75"/><polygon class="f" points="227.78 73.18 241.87 81.31 227.78 89.44 227.78 73.18"/><polygon class="h" points="227.78 89.44 213.7 81.31 227.78 73.18 227.78 89.44"/><polygon class="h" points="199.63 73.18 185.54 65.05 199.63 56.91 199.63 73.18"/><polygon class="f" points="227.78 89.44 241.87 97.57 227.78 105.7 227.78 89.44"/><polygon class="g" points="227.78 105.7 213.7 97.57 227.78 89.44 227.78 105.7"/><polygon class="f" points="227.78 105.7 241.87 113.83 227.78 121.96 227.78 105.7"/><polygon class="g" points="227.78 121.96 241.87 130.09 227.78 138.22 227.78 121.96"/><polygon class="f" points="227.78 138.22 213.7 130.09 227.78 121.96 227.78 138.22"/><polygon class="i" points="227.78 138.22 241.87 146.35 227.78 154.48 227.78 138.22"/><polygon class="f" points="227.78 154.48 213.7 146.35 227.78 138.22 227.78 154.48"/><polygon class="h" points="227.78 154.48 241.87 162.61 227.78 170.74 227.78 154.48"/><polygon class="f" points="227.78 170.75 213.7 162.61 227.78 154.48 227.78 170.75"/><polygon class="h" points="227.78 170.75 241.87 178.88 227.78 187.01 227.78 170.75"/><polygon class="f" points="227.78 187.01 213.7 178.88 227.78 170.75 227.78 187.01"/><polygon class="g" points="227.78 187.01 241.87 195.14 227.78 203.27 227.78 187.01"/><polygon class="f" points="227.78 203.27 213.7 195.14 227.78 187.01 227.78 203.27"/><polygon class="f" points="227.78 203.27 241.87 211.4 227.78 219.53 227.78 203.27"/><polygon class="f" points="227.78 219.53 213.7 211.4 227.78 203.27 227.78 219.53"/><polygon class="g" points="227.78 219.53 241.87 227.66 227.78 235.79 227.78 219.53"/><polygon class="f" points="227.78 235.79 213.7 227.66 227.78 219.53 227.78 235.79"/><polygon class="f" points="227.78 235.79 241.87 243.92 227.78 252.05 227.78 235.79"/><polygon class="g" points="227.78 252.05 213.7 243.92 227.78 235.79 227.78 252.05"/><polygon class="h" points="227.78 252.05 241.87 260.18 227.78 268.31 227.78 252.05"/><polygon class="g" points="227.78 268.31 213.7 260.18 227.78 252.05 227.78 268.31"/><polygon class="g" points="227.78 268.31 241.87 276.44 227.78 284.57 227.78 268.31"/><polygon class="f" points="227.78 284.57 213.7 276.44 227.78 268.31 227.78 284.57"/><polygon class="f" points="227.78 284.57 241.87 292.71 227.78 300.84 227.78 284.57"/><polygon class="h" points="227.78 300.84 213.7 292.71 227.78 284.58 227.78 300.84"/><polygon class="g" points="227.78 300.84 241.87 308.97 227.78 317.1 227.78 300.84"/><polygon class="f" points="227.78 317.1 213.7 308.97 227.78 300.84 227.78 317.1"/><polygon class="h" points="227.78 317.1 241.87 325.23 227.78 333.36 227.78 317.1"/><polygon class="f" points="227.78 333.36 213.7 325.23 227.78 317.1 227.78 333.36"/><polygon class="g" points="227.78 333.36 241.87 341.49 227.78 349.62 227.78 333.36"/><polygon class="f" points="227.78 349.62 213.7 341.49 227.78 333.36 227.78 349.62"/><polygon class="h" points="227.78 349.62 241.87 357.75 227.78 365.88 227.78 349.62"/><polygon class="g" points="227.78 365.88 213.7 357.75 227.78 349.62 227.78 365.88"/><polygon class="f" points="213.71 97.57 199.63 89.44 213.71 81.31 213.71 97.57"/><polygon class="h" points="213.71 97.57 227.79 105.7 213.71 113.83 213.71 97.57"/><polygon class="i" points="213.71 113.83 199.63 105.7 213.71 97.57 213.71 113.83"/><polygon class="i" points="213.71 113.83 227.79 121.96 213.71 130.09 213.71 113.83"/><polygon class="f" points="213.71 130.09 199.63 121.96 213.71 113.83 213.71 130.09"/><polygon class="h" points="213.71 130.09 227.79 138.22 213.71 146.35 213.71 130.09"/><polygon class="f" points="213.71 146.35 199.63 138.22 213.71 130.09 213.71 146.35"/><polygon class="g" points="213.71 146.35 227.79 154.48 213.71 162.61 213.71 146.35"/><polygon class="f" points="213.71 162.61 199.63 154.48 213.71 146.35 213.71 162.61"/><polygon class="g" points="213.71 162.61 227.79 170.75 213.71 178.88 213.71 162.61"/><polygon class="h" points="213.71 178.88 199.63 170.75 213.71 162.62 213.71 178.88"/><polygon class="g" points="213.71 178.88 227.79 187.01 213.71 195.14 213.71 178.88"/><polygon class="h" points="213.71 195.14 199.63 187.01 213.71 178.88 213.71 195.14"/><polygon class="g" points="213.71 195.14 227.79 203.27 213.71 211.4 213.71 195.14"/><polygon class="f" points="213.71 211.4 199.63 203.27 213.71 195.14 213.71 211.4"/><polygon class="f" points="213.71 211.4 227.79 219.53 213.71 227.66 213.71 211.4"/><polygon class="f" points="213.71 227.66 199.63 219.53 213.71 211.4 213.71 227.66"/><polygon class="h" points="213.71 227.66 227.79 235.79 213.71 243.92 213.71 227.66"/><polygon class="f" points="213.71 243.92 199.63 235.79 213.71 227.66 213.71 243.92"/><polygon class="f" points="213.71 243.92 227.79 252.05 213.71 260.18 213.71 243.92"/><polygon class="f" points="213.71 260.18 199.63 252.05 213.71 243.92 213.71 260.18"/><polygon class="f" points="213.71 260.18 227.79 268.31 213.71 276.44 213.71 260.18"/><polygon class="f" points="213.71 276.44 199.63 268.31 213.71 260.18 213.71 276.44"/><polygon class="f" points="213.71 276.44 227.79 284.57 213.71 292.71 213.71 276.44"/><polygon class="f" points="213.71 292.71 199.63 284.58 213.71 276.44 213.71 292.71"/><polygon class="g" points="213.71 292.71 227.79 300.84 213.71 308.97 213.71 292.71"/><polygon class="g" points="213.71 308.97 199.63 300.84 213.71 292.71 213.71 308.97"/><polygon class="h" points="213.71 308.97 227.79 317.1 213.71 325.23 213.71 308.97"/><polygon class="g" points="213.71 325.23 227.79 333.36 213.71 341.49 213.71 325.23"/><polygon class="f" points="213.71 341.49 199.63 333.36 213.71 325.23 213.71 341.49"/><polygon class="h" points="213.71 341.49 227.79 349.62 213.71 357.75 213.71 341.49"/><polygon class="g" points="199.63 73.18 213.71 81.31 199.63 89.44 199.63 73.18"/><polygon class="g" points="199.63 89.44 185.54 81.31 199.63 73.18 199.63 89.44"/><polygon class="f" points="199.63 105.7 185.54 97.57 199.63 89.44 199.63 105.7"/><polygon class="f" points="199.63 121.96 185.54 113.83 199.63 105.7 199.63 121.96"/><polygon class="g" points="199.63 121.96 213.71 130.09 199.63 138.22 199.63 121.96"/><polygon class="f" points="199.63 138.22 185.54 130.09 199.63 121.96 199.63 138.22"/><polygon class="g" points="199.63 138.22 213.71 146.35 199.63 154.48 199.63 138.22"/><polygon class="f" points="199.63 154.48 185.54 146.35 199.63 138.22 199.63 154.48"/><polygon class="g" points="199.63 154.48 213.71 162.61 199.63 170.74 199.63 154.48"/><polygon class="f" points="199.63 170.75 185.54 162.61 199.63 154.48 199.63 170.75"/><polygon class="f" points="199.63 170.75 213.71 178.88 199.63 187.01 199.63 170.75"/><polygon class="f" points="199.63 187.01 185.54 178.88 199.63 170.75 199.63 187.01"/><polygon class="g" points="199.63 187.01 213.71 195.14 199.63 203.27 199.63 187.01"/><polygon class="h" points="199.63 203.27 185.54 195.14 199.63 187.01 199.63 203.27"/><polygon class="h" points="199.63 203.27 213.71 211.4 199.63 219.53 199.63 203.27"/><polygon class="f" points="199.63 219.53 185.54 211.4 199.63 203.27 199.63 219.53"/><polygon class="g" points="199.63 219.53 213.71 227.66 199.63 235.79 199.63 219.53"/><polygon class="f" points="199.63 235.79 185.54 227.66 199.63 219.53 199.63 235.79"/><polygon class="f" points="199.63 235.79 213.71 243.92 199.63 252.05 199.63 235.79"/><polygon class="g" points="199.63 252.05 185.54 243.92 199.63 235.79 199.63 252.05"/><polygon class="g" points="199.63 252.05 213.71 260.18 199.63 268.31 199.63 252.05"/><polygon class="f" points="199.63 268.31 185.54 260.18 199.63 252.05 199.63 268.31"/><polygon class="g" points="199.63 268.31 213.71 276.44 199.63 284.57 199.63 268.31"/><polygon class="f" points="199.63 284.57 185.54 276.44 199.63 268.31 199.63 284.57"/><polygon class="f" points="199.63 300.84 185.54 292.71 199.63 284.58 199.63 300.84"/><polygon class="f" points="199.63 300.84 213.71 308.97 199.63 317.1 199.63 300.84"/><polygon class="h" points="199.63 317.1 185.54 308.97 199.63 300.84 199.63 317.1"/><polygon class="g" points="199.63 317.1 213.71 325.23 199.63 333.36 199.63 317.1"/><polygon class="i" points="199.63 333.36 185.54 325.23 199.63 317.1 199.63 333.36"/><polygon class="h" points="199.63 333.36 213.71 341.49 199.63 349.62 199.63 333.36"/><polygon class="f" points="199.63 349.62 213.71 357.75 199.63 365.88 199.63 349.62"/><polygon class="g" points="185.55 113.83 199.63 121.96 185.55 130.09 185.55 113.83"/><polygon class="h" points="185.55 146.35 171.47 138.22 185.55 130.09 185.55 146.35"/><polygon class="g" points="185.55 146.35 199.63 154.48 185.55 162.61 185.55 146.35"/><polygon class="f" points="326.33 16.26 312.25 8.13 326.33 0 326.33 16.26"/><polygon class="f" points="326.33 32.52 312.25 24.39 326.33 16.26 326.33 32.52"/><polygon class="f" points="326.33 48.78 312.25 40.65 326.33 32.52 326.33 48.78"/><polygon class="f" points="326.33 65.05 312.25 56.91 326.33 48.78 326.33 65.05"/><polygon class="f" points="312.25 8.13 326.33 16.26 312.25 24.39 312.25 8.13"/><polygon class="f" points="312.25 24.39 298.17 16.26 312.25 8.13 312.25 24.39"/><polygon class="f" points="312.25 24.39 326.33 32.52 312.25 40.65 312.25 24.39"/><polygon class="f" points="312.25 40.65 298.17 32.52 312.25 24.39 312.25 40.65"/><polygon class="f" points="312.25 40.65 326.33 48.78 312.25 56.91 312.25 40.65"/><polygon class="f" points="312.25 56.91 298.17 48.78 312.25 40.65 312.25 56.91"/><polygon class="f" points="312.25 56.91 326.33 65.05 312.25 73.18 312.25 56.91"/><polygon class="f" points="312.25 73.18 298.17 65.05 312.25 56.91 312.25 73.18"/><polygon class="f" points="298.2 0 312.28 8.13 298.2 16.26 298.2 0"/><polygon class="f" points="298.2 16.26 284.11 8.13 298.2 0 298.2 16.26"/><polygon class="f" points="298.2 16.26 312.28 24.39 298.2 32.52 298.2 16.26"/><polygon class="f" points="298.2 32.52 284.11 24.39 298.2 16.26 298.2 32.52"/><polygon class="f" points="298.2 32.52 312.28 40.65 298.2 48.78 298.2 32.52"/><polygon class="f" points="298.2 48.78 284.11 40.65 298.2 32.52 298.2 48.78"/><polygon class="f" points="298.2 48.78 312.28 56.91 298.2 65.05 298.2 48.78"/><polygon class="f" points="298.2 65.05 284.11 56.91 298.2 48.78 298.2 65.05"/><polygon class="f" points="284.11 8.13 298.2 16.26 284.11 24.39 284.11 8.13"/><polygon class="f" points="284.11 24.39 270.03 16.26 284.11 8.13 284.11 24.39"/><polygon class="f" points="284.11 24.39 298.2 32.52 284.11 40.65 284.11 24.39"/><polygon class="g" points="284.11 40.65 270.03 32.52 284.11 24.39 284.11 40.65"/><polygon class="f" points="284.11 40.65 298.2 48.78 284.11 56.91 284.11 40.65"/><polygon class="f" points="284.11 56.91 270.03 48.78 284.11 40.65 284.11 56.91"/><polygon class="f" points="284.11 56.91 298.2 65.05 284.11 73.18 284.11 56.91"/><polygon class="f" points="284.11 73.18 270.03 65.05 284.11 56.91 284.11 73.18"/><polygon class="f" points="270.04 0 284.12 8.13 270.04 16.26 270.04 0"/><polygon class="f" points="270.04 16.26 255.96 8.13 270.04 0 270.04 16.26"/><polygon class="f" points="270.04 16.26 284.12 24.39 270.04 32.52 270.04 16.26"/><polygon class="f" points="270.04 32.52 255.96 24.39 270.04 16.26 270.04 32.52"/><polygon class="f" points="270.04 32.52 284.12 40.65 270.04 48.78 270.04 32.52"/><polygon class="f" points="270.04 48.78 255.96 40.65 270.04 32.52 270.04 48.78"/><polygon class="f" points="270.04 48.78 284.12 56.91 270.04 65.05 270.04 48.78"/><polygon class="h" points="270.04 65.05 255.96 56.91 270.04 48.78 270.04 65.05"/><polygon class="f" points="255.96 8.13 270.04 16.26 255.96 24.39 255.96 8.13"/><polygon class="f" points="255.96 24.39 241.87 16.26 255.96 8.13 255.96 24.39"/><polygon class="f" points="255.96 24.39 270.04 32.52 255.96 40.65 255.96 24.39"/><polygon class="f" points="255.96 40.65 241.87 32.52 255.96 24.39 255.96 40.65"/><polygon class="f" points="255.96 40.65 270.04 48.78 255.96 56.91 255.96 40.65"/><polygon class="f" points="255.96 56.91 241.87 48.78 255.96 40.65 255.96 56.91"/><polygon class="g" points="255.96 56.91 270.04 65.05 255.96 73.18 255.96 56.91"/><polygon class="f" points="255.96 73.18 241.87 65.05 255.96 56.91 255.96 73.18"/><polygon class="f" points="241.87 0 255.95 8.13 241.87 16.26 241.87 0"/><polygon class="h" points="241.87 16.26 227.78 8.13 241.87 0 241.87 16.26"/><polygon class="h" points="241.87 16.26 255.95 24.39 241.87 32.52 241.87 16.26"/><polygon class="f" points="241.87 32.52 227.78 24.39 241.87 16.26 241.87 32.52"/><polygon class="f" points="241.87 32.52 255.95 40.65 241.87 48.78 241.87 32.52"/><polygon class="h" points="241.87 48.78 227.78 40.65 241.87 32.52 241.87 48.78"/><polygon class="g" points="241.87 48.78 255.95 56.91 241.87 65.05 241.87 48.78"/><polygon class="g" points="241.87 65.05 255.95 73.18 241.87 81.31 241.87 65.05"/><polygon class="f" points="241.87 65.05 227.78 56.91 241.87 48.78 241.87 65.05"/><polygon class="f" points="227.78 8.13 241.87 16.26 227.78 24.39 227.78 8.13"/><polygon class="g" points="227.78 24.39 241.87 32.52 227.78 40.65 227.78 24.39"/><polygon class="f" points="227.79 40.65 213.71 32.52 227.79 24.39 227.79 40.65"/><polygon class="i" points="227.78 40.65 241.87 48.78 227.78 56.91 227.78 40.65"/><polygon class="h" points="227.78 56.91 241.87 65.05 227.78 73.18 227.78 56.91"/><polygon class="f" points="227.78 73.18 213.7 65.05 227.78 56.91 227.78 73.18"/><polygon class="h" points="213.71 0 227.79 8.13 213.71 16.26 213.71 0"/><polygon class="i" points="213.71 16.26 199.63 8.13 213.71 0 213.71 16.26"/><polygon class="i" points="213.71 16.26 227.79 24.39 213.71 32.52 213.71 16.26"/><polygon class="h" points="213.71 32.52 227.79 40.65 213.71 48.78 213.71 32.52"/><polygon class="f" points="213.71 48.78 199.63 40.65 213.71 32.52 213.71 48.78"/><polygon class="g" points="213.71 48.78 227.79 56.91 213.71 65.05 213.71 48.78"/><polygon class="g" points="213.71 65.05 227.79 73.18 213.71 81.31 213.71 65.05"/><polygon class="f" points="213.71 65.05 199.63 56.91 213.71 48.78 213.71 65.05"/><polygon class="f" points="199.63 24.39 185.54 16.26 199.63 8.13 199.63 24.39"/><polygon class="g" points="199.63 56.91 213.71 65.05 199.63 73.18 199.63 56.91"/><polygon class="g" points="185.55 48.78 199.63 56.91 185.55 65.05 185.55 48.78"/><polygon class="i" points="185.55 162.61 171.47 154.48 185.55 146.35 185.55 162.61"/><polygon class="h" points="185.55 162.61 199.63 170.75 185.55 178.88 185.55 162.61"/><polygon class="g" points="185.55 178.88 171.47 170.75 185.55 162.62 185.55 178.88"/><polygon class="g" points="185.55 178.88 199.63 187.01 185.55 195.14 185.55 178.88"/><polygon class="g" points="185.55 195.14 171.47 187.01 185.55 178.88 185.55 195.14"/><polygon class="g" points="185.55 195.14 199.63 203.27 185.55 211.4 185.55 195.14"/><polygon class="g" points="185.55 211.4 171.47 203.27 185.55 195.14 185.55 211.4"/><polygon class="h" points="185.55 211.4 199.63 219.53 185.55 227.66 185.55 211.4"/><polygon class="g" points="185.55 227.66 171.47 219.53 185.55 211.4 185.55 227.66"/><polygon class="h" points="185.55 227.66 199.63 235.79 185.55 243.92 185.55 227.66"/><polygon class="i" points="185.55 243.92 171.47 235.79 185.55 227.66 185.55 243.92"/><polygon class="f" points="185.55 243.92 199.63 252.05 185.55 260.18 185.55 243.92"/><polygon class="g" points="185.55 260.18 171.47 252.05 185.55 243.92 185.55 260.18"/><polygon class="f" points="185.55 260.18 199.63 268.31 185.55 276.44 185.55 260.18"/><polygon class="g" points="185.55 276.44 171.47 268.31 185.55 260.18 185.55 276.44"/><polygon class="h" points="185.55 276.44 199.63 284.57 185.55 292.71 185.55 276.44"/><polygon class="f" points="185.55 292.71 199.63 300.84 185.55 308.97 185.55 292.71"/><polygon class="g" points="185.55 308.97 171.47 300.84 185.55 292.71 185.55 308.97"/><polygon class="f" points="185.55 308.97 199.63 317.1 185.55 325.23 185.55 308.97"/><polygon class="f" points="185.55 325.23 199.63 333.36 185.55 341.49 185.55 325.23"/><polygon class="i" points="185.55 341.49 171.47 333.36 185.55 325.23 185.55 341.49"/><polygon class="f" points="185.55 341.49 199.63 349.62 185.55 357.75 185.55 341.49"/><polygon class="g" points="185.55 357.75 171.47 349.62 185.55 341.49 185.55 357.75"/><polygon class="g" points="171.47 105.7 185.55 113.83 171.47 121.96 171.47 105.7"/><polygon class="i" points="171.47 121.96 157.38 113.83 171.47 105.7 171.47 121.96"/><polygon class="g" points="171.47 121.96 185.55 130.09 171.47 138.22 171.47 121.96"/><polygon class="h" points="171.47 138.22 157.38 130.09 171.47 121.96 171.47 138.22"/><polygon class="g" points="171.47 138.22 185.55 146.35 171.47 154.48 171.47 138.22"/><polygon class="h" points="171.47 154.48 185.55 162.61 171.47 170.74 171.47 154.48"/><polygon class="g" points="171.47 170.75 157.38 162.61 171.47 154.48 171.47 170.75"/><polygon class="h" points="171.47 170.75 185.55 178.88 171.47 187.01 171.47 170.75"/><polygon class="h" points="171.47 187.01 157.38 178.88 171.47 170.75 171.47 187.01"/><polygon class="i" points="171.47 187.01 185.55 195.14 171.47 203.27 171.47 187.01"/><polygon class="g" points="171.47 203.27 157.38 195.14 171.47 187.01 171.47 203.27"/><polygon class="f" points="171.47 203.27 185.55 211.4 171.47 219.53 171.47 203.27"/><polygon class="g" points="171.47 219.53 157.38 211.4 171.47 203.27 171.47 219.53"/><polygon class="g" points="171.47 219.53 185.55 227.66 171.47 235.79 171.47 219.53"/><polygon class="g" points="171.47 235.79 157.38 227.66 171.47 219.53 171.47 235.79"/><polygon class="g" points="171.47 235.79 185.55 243.92 171.47 252.05 171.47 235.79"/><polygon class="i" points="171.47 252.05 157.38 243.92 171.47 235.79 171.47 252.05"/><polygon class="h" points="171.47 252.05 185.55 260.18 171.47 268.31 171.47 252.05"/><polygon class="g" points="171.47 268.31 185.55 276.44 171.47 284.57 171.47 268.31"/><polygon class="h" points="171.47 284.57 157.38 276.44 171.47 268.31 171.47 284.57"/><polygon class="g" points="171.47 300.84 157.38 292.71 171.47 284.58 171.47 300.84"/><polygon class="h" points="171.47 300.84 185.55 308.97 171.47 317.1 171.47 300.84"/><polygon class="g" points="171.47 317.1 157.38 308.97 171.47 300.84 171.47 317.1"/><polygon class="g" points="171.47 317.1 185.55 325.23 171.47 333.36 171.47 317.1"/><polygon class="f" points="326.33 374.01 312.25 365.88 326.33 357.75 326.33 374.01"/><polygon class="f" points="326.33 390.27 312.25 382.14 326.33 374.01 326.33 390.27"/><polygon class="f" points="326.33 406.54 312.25 398.41 326.33 390.27 326.33 406.54"/><polygon class="f" points="326.33 422.8 312.25 414.67 326.33 406.54 326.33 422.8"/><polygon class="f" points="326.33 439.06 312.25 430.93 326.33 422.8 326.33 439.06"/><polygon class="f" points="312.25 365.88 326.33 374.01 312.25 382.14 312.25 365.88"/><polygon class="f" points="312.25 382.14 298.17 374.01 312.25 365.88 312.25 382.14"/><polygon class="f" points="312.25 382.14 326.33 390.27 312.25 398.4 312.25 382.14"/><polygon class="f" points="312.25 398.4 298.17 390.27 312.25 382.14 312.25 398.4"/><polygon class="f" points="312.25 398.4 326.33 406.54 312.25 414.67 312.25 398.4"/><polygon class="f" points="312.25 414.67 298.17 406.54 312.25 398.4 312.25 414.67"/><polygon class="f" points="312.25 414.67 326.33 422.8 312.25 430.93 312.25 414.67"/><polygon class="f" points="312.25 430.93 298.17 422.8 312.25 414.67 312.25 430.93"/><polygon class="g" points="298.2 357.75 312.28 365.88 298.2 374.01 298.2 357.75"/><polygon class="f" points="298.2 374.01 284.11 365.88 298.2 357.75 298.2 374.01"/><polygon class="f" points="298.2 374.01 312.28 382.14 298.2 390.27 298.2 374.01"/><polygon class="f" points="298.2 390.27 284.11 382.14 298.2 374.01 298.2 390.27"/><polygon class="f" points="298.2 390.27 312.28 398.4 298.2 406.54 298.2 390.27"/><polygon class="f" points="298.2 406.54 284.11 398.41 298.2 390.27 298.2 406.54"/><polygon class="f" points="298.2 406.54 312.28 414.67 298.2 422.8 298.2 406.54"/><polygon class="f" points="298.2 422.8 284.11 414.67 298.2 406.54 298.2 422.8"/><polygon class="f" points="298.2 422.8 312.28 430.93 298.2 439.06 298.2 422.8"/><polygon class="f" points="298.2 439.06 284.11 430.93 298.2 422.8 298.2 439.06"/><polygon class="f" points="284.11 365.88 298.2 374.01 284.11 382.14 284.11 365.88"/><polygon class="f" points="284.11 382.14 270.03 374.01 284.11 365.88 284.11 382.14"/><polygon class="f" points="284.11 382.14 298.2 390.27 284.11 398.4 284.11 382.14"/><polygon class="f" points="284.11 398.4 270.03 390.27 284.11 382.14 284.11 398.4"/><polygon class="f" points="284.11 398.4 298.2 406.54 284.11 414.67 284.11 398.4"/><polygon class="f" points="284.11 414.67 270.03 406.54 284.11 398.4 284.11 414.67"/><polygon class="f" points="284.11 414.67 298.2 422.8 284.11 430.93 284.11 414.67"/><polygon class="f" points="284.11 430.93 270.03 422.8 284.11 414.67 284.11 430.93"/><polygon class="f" points="270.04 357.75 284.12 365.88 270.04 374.01 270.04 357.75"/><polygon class="g" points="270.04 374.01 255.96 365.88 270.04 357.75 270.04 374.01"/><polygon class="f" points="270.04 374.01 284.12 382.14 270.04 390.27 270.04 374.01"/><polygon class="f" points="270.04 390.27 255.96 382.14 270.04 374.01 270.04 390.27"/><polygon class="f" points="270.04 390.27 284.12 398.4 270.04 406.54 270.04 390.27"/><polygon class="f" points="270.04 406.54 255.96 398.41 270.04 390.27 270.04 406.54"/><polygon class="f" points="270.04 406.54 284.12 414.67 270.04 422.8 270.04 406.54"/><polygon class="f" points="270.04 422.8 255.96 414.67 270.04 406.54 270.04 422.8"/><polygon class="f" points="270.04 422.8 284.12 430.93 270.04 439.06 270.04 422.8"/><polygon class="f" points="270.04 439.06 255.96 430.93 270.04 422.8 270.04 439.06"/><polygon class="f" points="255.96 365.88 270.04 374.01 255.96 382.14 255.96 365.88"/><polygon class="f" points="255.96 382.14 241.87 374.01 255.96 365.88 255.96 382.14"/><polygon class="f" points="255.96 382.14 270.04 390.27 255.96 398.4 255.96 382.14"/><polygon class="f" points="255.96 398.4 241.87 390.27 255.96 382.14 255.96 398.4"/><polygon class="f" points="255.96 398.4 270.04 406.54 255.96 414.67 255.96 398.4"/><polygon class="f" points="255.96 414.67 241.87 406.54 255.96 398.4 255.96 414.67"/><polygon class="f" points="255.96 414.67 270.04 422.8 255.96 430.93 255.96 414.67"/><polygon class="f" points="255.96 430.93 241.87 422.8 255.96 414.67 255.96 430.93"/><polygon class="g" points="241.87 357.75 255.95 365.88 241.87 374.01 241.87 357.75"/><polygon class="f" points="241.87 374.01 227.78 365.88 241.87 357.75 241.87 374.01"/><polygon class="f" points="241.87 374.01 255.95 382.14 241.87 390.27 241.87 374.01"/><polygon class="f" points="241.87 390.27 227.78 382.14 241.87 374.01 241.87 390.27"/><polygon class="g" points="241.87 390.27 255.95 398.4 241.87 406.54 241.87 390.27"/><polygon class="h" points="241.87 406.54 227.78 398.41 241.87 390.27 241.87 406.54"/><polygon class="g" points="241.87 406.54 255.95 414.67 241.87 422.8 241.87 406.54"/><polygon class="f" points="241.87 422.8 227.78 414.67 241.87 406.54 241.87 422.8"/><polygon class="f" points="241.87 422.8 255.95 430.93 241.87 439.06 241.87 422.8"/><polygon class="g" points="227.78 365.88 241.87 374.01 227.78 382.14 227.78 365.88"/><polygon class="f" points="227.78 382.14 213.7 374.01 227.78 365.88 227.78 382.14"/><polygon class="f" points="227.78 382.14 241.87 390.27 227.78 398.4 227.78 382.14"/><polygon class="h" points="227.78 398.4 213.7 390.27 227.78 382.14 227.78 398.4"/><polygon class="g" points="227.78 398.4 241.87 406.54 227.78 414.67 227.78 398.4"/><polygon class="f" points="227.78 414.67 213.7 406.54 227.78 398.4 227.78 414.67"/><polygon class="h" points="227.78 414.67 241.87 422.8 227.78 430.93 227.78 414.67"/><polygon class="f" points="227.78 430.93 213.7 422.8 227.78 414.67 227.78 430.93"/><polygon class="f" points="213.71 357.75 227.79 365.88 213.71 374.01 213.71 357.75"/><polygon class="h" points="213.71 374.01 199.63 365.88 213.71 357.75 213.71 374.01"/><polygon class="f" points="213.71 374.01 227.79 382.14 213.71 390.27 213.71 374.01"/><polygon class="h" points="213.71 390.27 199.63 382.14 213.71 374.01 213.71 390.27"/><polygon class="f" points="213.71 390.27 227.79 398.4 213.71 406.54 213.71 390.27"/><polygon class="g" points="213.71 406.54 199.63 398.41 213.71 390.27 213.71 406.54"/><polygon class="h" points="213.71 406.54 227.79 414.67 213.71 422.8 213.71 406.54"/><polygon class="g" points="213.71 422.8 227.79 430.93 213.71 439.06 213.71 422.8"/><polygon class="f" points="213.71 439.06 199.63 430.93 213.71 422.8 213.71 439.06"/><polygon class="g" points="199.63 365.88 213.71 374.01 199.63 382.14 199.63 365.88"/><polygon class="f" points="199.63 398.4 185.54 390.27 199.63 382.14 199.63 398.4"/><polygon class="f" points="199.63 398.4 213.71 406.54 199.63 414.67 199.63 398.4"/><polygon class="h" points="199.63 414.67 185.54 406.54 199.63 398.4 199.63 414.67"/><polygon class="g" points="199.63 414.67 213.71 422.8 199.63 430.93 199.63 414.67"/><polygon class="i" points="199.63 430.93 185.54 422.8 199.63 414.67 199.63 430.93"/><polygon class="f" points="185.55 357.75 199.63 365.88 185.55 374.01 185.55 357.75"/><polygon class="h" points="185.55 374.01 199.63 382.14 185.55 390.27 185.55 374.01"/><polygon class="g" points="185.55 406.54 171.47 398.41 185.55 390.27 185.55 406.54"/><polygon class="g" points="171.47 365.88 185.55 374.01 171.47 382.14 171.47 365.88"/><polygon class="h" points="171.47 333.36 157.38 325.23 171.47 317.1 171.47 333.36"/><polygon class="g" points="171.47 349.62 157.38 341.49 171.47 333.36 171.47 349.62"/><polygon class="i" points="157.38 130.09 171.46 138.22 157.38 146.35 157.38 130.09"/><polygon class="g" points="157.38 146.35 171.46 154.48 157.38 162.61 157.38 146.35"/><polygon class="i" points="157.38 162.61 171.46 170.75 157.38 178.88 157.38 162.61"/><polygon class="g" points="157.38 178.88 143.29 170.75 157.38 162.62 157.38 178.88"/><polygon class="h" points="157.38 195.14 143.29 187.01 157.38 178.88 157.38 195.14"/><polygon class="i" points="157.38 195.14 171.46 203.27 157.38 211.4 157.38 195.14"/><polygon class="h" points="157.38 211.4 143.29 203.27 157.38 195.14 157.38 211.4"/><polygon class="i" points="157.38 211.4 171.46 219.53 157.38 227.66 157.38 211.4"/><polygon class="h" points="157.38 227.66 143.29 219.53 157.38 211.4 157.38 227.66"/><polygon class="h" points="157.38 227.66 171.46 235.79 157.38 243.92 157.38 227.66"/><polygon class="i" points="157.38 243.92 143.29 235.79 157.38 227.66 157.38 243.92"/><polygon class="g" points="157.38 243.92 171.46 252.05 157.38 260.18 157.38 243.92"/><polygon class="i" points="157.38 260.18 171.46 268.31 157.38 276.44 157.38 260.18"/><polygon class="g" points="157.38 276.44 143.29 268.31 157.38 260.18 157.38 276.44"/><polygon class="h" points="157.38 292.71 143.29 284.58 157.38 276.44 157.38 292.71"/><polygon class="i" points="157.38 292.71 171.46 300.84 157.38 308.97 157.38 292.71"/><polygon class="g" points="143.29 121.96 157.38 130.09 143.29 138.22 143.29 121.96"/><polygon class="g" points="143.29 138.22 157.38 146.35 143.29 154.48 143.29 138.22"/><polygon class="h" points="143.29 154.48 157.38 162.61 143.29 170.74 143.29 154.48"/><polygon class="i" points="143.29 170.75 157.38 178.88 143.29 187.01 143.29 170.75"/><polygon class="i" points="143.29 203.27 129.21 195.14 143.29 187.01 143.29 203.27"/><polygon class="i" points="143.29 203.27 157.38 211.4 143.29 219.53 143.29 203.27"/><polygon class="i" points="143.29 219.53 157.38 227.66 143.29 235.79 143.29 219.53"/><polygon class="h" points="143.29 235.79 129.21 227.66 143.29 219.53 143.29 235.79"/><polygon class="h" points="143.29 235.79 157.38 243.92 143.29 252.05 143.29 235.79"/><polygon class="g" points="143.29 252.05 129.21 243.92 143.29 235.79 143.29 252.05"/><polygon class="i" points="143.29 252.05 157.38 260.18 143.29 268.31 143.29 252.05"/><polygon class="g" points="143.29 268.31 129.21 260.18 143.29 252.05 143.29 268.31"/><polygon class="h" points="143.29 284.57 129.21 276.44 143.29 268.31 143.29 284.57"/><polygon class="i" points="143.29 300.84 129.21 292.71 143.29 284.58 143.29 300.84"/><polygon class="h" points="143.29 300.84 157.38 308.97 143.29 317.1 143.29 300.84"/><polygon class="g" points="129.2 162.61 115.12 154.48 129.2 146.35 129.2 162.61"/><polygon class="h" points="129.2 162.61 143.28 170.75 129.2 178.88 129.2 162.61"/><polygon class="h" points="129.2 178.88 143.28 187.01 129.2 195.14 129.2 178.88"/><polygon class="i" points="129.2 195.14 115.12 187.01 129.2 178.88 129.2 195.14"/><polygon class="h" points="129.2 195.14 143.28 203.27 129.2 211.4 129.2 195.14"/><polygon class="i" points="129.2 211.4 143.28 219.53 129.2 227.66 129.2 211.4"/><polygon class="h" points="129.2 243.92 115.12 235.79 129.2 227.66 129.2 243.92"/><polygon class="h" points="129.2 243.92 143.28 252.05 129.2 260.18 129.2 243.92"/><polygon class="h" points="129.2 260.18 115.12 252.05 129.2 243.92 129.2 260.18"/><polygon class="h" points="115.12 203.27 101.03 195.14 115.12 187.01 115.12 203.27"/><polygon class="h" points="115.12 203.27 129.2 211.4 115.12 219.53 115.12 203.27"/><polygon class="i" points="115.12 219.53 101.03 211.4 115.12 203.27 115.12 219.53"/><polygon class="i" points="115.12 219.53 129.2 227.66 115.12 235.79 115.12 219.53"/><polygon class="h" points="115.12 252.05 101.03 243.92 115.12 235.79 115.12 252.05"/><polygon class="i" points="115.12 284.57 101.03 276.44 115.12 268.31 115.12 284.57"/></g></g><path class="j" d="M236.39,67.82h-0.2l-6.36,4.34a7.33,7.33,0,0,1-4.24,1.31,5.77,5.77,0,0,1-5.85-6,6.54,6.54,0,0,1,.86-3.18,8,8,0,0,1,2.67-2.77l10.79-7.47a21.52,21.52,0,0,1,4.08-2.27,11.63,11.63,0,0,1,4.49-.86,7.33,7.33,0,0,1,5.75,2.37,9,9,0,0,1,2.12,6.2v53.77a7.33,7.33,0,0,1-2,5.5,7.51,7.51,0,0,1-10.14,0,7.43,7.43,0,0,1-2-5.5V67.82Z" transform="translate(-2.72 103)"/><path class="j" d="M268.37,110.79a8,8,0,0,1-.71-3.43,6.22,6.22,0,0,1,1.72-4.44,6.08,6.08,0,0,1,4.64-1.82q3.93,0,6.46,4a8.57,8.57,0,0,0,3.18,3.13,9.17,9.17,0,0,0,4.59,1.11,7.92,7.92,0,0,0,6.2-2.52,10.5,10.5,0,0,0-.4-13.52,9,9,0,0,0-6.41-2.52h-0.71a6.11,6.11,0,0,1-4.44-1.66,6.22,6.22,0,0,1,0-8.58,6.11,6.11,0,0,1,4.44-1.66h0.71a7.4,7.4,0,0,0,5.6-2.27,8.61,8.61,0,0,0,2.17-6.2,8.24,8.24,0,0,0-2.07-5.85,7.29,7.29,0,0,0-5.6-2.22,7.18,7.18,0,0,0-4.59,1.26,8.69,8.69,0,0,0-2.37,2.88,7.17,7.17,0,0,1-2.67,3,6.79,6.79,0,0,1-3.58,1,6,6,0,0,1-6.25-6.25,9.16,9.16,0,0,1,.81-3.53,16.36,16.36,0,0,1,6.86-7.31q4.94-3,12.41-3a26.49,26.49,0,0,1,9,1.41A19.23,19.23,0,0,1,304,55.81a16.58,16.58,0,0,1,4.14,6,20.07,20.07,0,0,1,1.41,7.62,16.28,16.28,0,0,1-7.67,14.12v0.2A14.47,14.47,0,0,1,305,86a16.78,16.78,0,0,1,2.88,3.48A19,19,0,0,1,310,94.25a23,23,0,0,1-.86,14.63,19.24,19.24,0,0,1-4.69,6.61,21.39,21.39,0,0,1-7.11,4.29,25.52,25.52,0,0,1-8.93,1.51,27,27,0,0,1-12.66-2.72A15.8,15.8,0,0,1,268.37,110.79Z" transform="translate(-2.72 103)"/><path class="j" d="M317.5,110.9a8.44,8.44,0,0,1-.5-2.62,6,6,0,0,1,1.77-4.39,6.21,6.21,0,0,1,4.59-1.77q3.43,0,6.15,3.33a11.1,11.1,0,0,0,3.18,2.62,8.73,8.73,0,0,0,4.49,1.21,8.5,8.5,0,0,0,4.69-1.26,6.75,6.75,0,0,0,2.77-3.58,14.87,14.87,0,0,0,.66-2.67,25,25,0,0,0,.25-3.88,32.31,32.31,0,0,0-.2-4,15,15,0,0,0-.61-2.77,6.34,6.34,0,0,0-2.82-3.68,8.82,8.82,0,0,0-4.34-1.06,8,8,0,0,0-3.63.76,7.68,7.68,0,0,0-2.62,2.17,8.52,8.52,0,0,1-3,2.57,9.23,9.23,0,0,1-3.93.76,6.64,6.64,0,0,1-5-1.92,7.33,7.33,0,0,1-1.87-5.35V57.63a6,6,0,0,1,1.61-4.44,6.14,6.14,0,0,1,4.54-1.61H352a6.45,6.45,0,0,1,4.69,1.71,5.8,5.8,0,0,1,1.76,4.34,5.92,5.92,0,0,1-1.76,4.44A6.44,6.44,0,0,1,352,63.78H330.51a0.54,0.54,0,0,0-.61.61V77.81h0.3a11.31,11.31,0,0,1,3.88-2.32,17.69,17.69,0,0,1,6.41-1,20.82,20.82,0,0,1,11.2,2.83,15.41,15.41,0,0,1,6.46,8.57,28.56,28.56,0,0,1,1.06,4.94,57,57,0,0,1,.35,7.06,37.72,37.72,0,0,1-.4,5.8,26.36,26.36,0,0,1-1.11,4.59,16.32,16.32,0,0,1-3,5.65,18.19,18.19,0,0,1-4.74,4,23,23,0,0,1-6.05,2.47,27.82,27.82,0,0,1-7,.86,30.86,30.86,0,0,1-7.26-.81,22.66,22.66,0,0,1-5.9-2.27,16.59,16.59,0,0,1-4.24-3.33A11.38,11.38,0,0,1,317.5,110.9Z" transform="translate(-2.72 103)"/><path class="j" d="M378.81,105.7q-0.4-1.31-.76-2.87a29.43,29.43,0,0,1-.55-3.88q-0.2-2.32-.35-5.5T377,85.73q0-4.54.15-7.72t0.35-5.5a29.5,29.5,0,0,1,.55-3.88q0.35-1.56.76-2.87Q384,50.42,400.7,50.42a26,26,0,0,1,6,.71,21.82,21.82,0,0,1,5.6,2.17A20.71,20.71,0,0,1,417,56.93,17.42,17.42,0,0,1,420.47,62a4.68,4.68,0,0,1,.4,1.61,2.62,2.62,0,0,1-.76,2,2.76,2.76,0,0,1-2,.71,2.93,2.93,0,0,1-2.52-1.82,16.11,16.11,0,0,0-14.93-8.68q-6.46,0-10.39,2.88a17.45,17.45,0,0,0-6,8.52q-0.3,1-.61,2.42a31.61,31.61,0,0,0-.5,3.53q-0.2,2.12-.3,5.14t-0.1,7.36q0,4.34.1,7.36t0.3,5.15a31.49,31.49,0,0,0,.5,3.53q0.3,1.42.61,2.42a17.44,17.44,0,0,0,6,8.52q3.93,2.87,10.39,2.88a16.11,16.11,0,0,0,14.93-8.68,2.93,2.93,0,0,1,2.52-1.82,2.77,2.77,0,0,1,2,.71,2.63,2.63,0,0,1,.76,2,4.67,4.67,0,0,1-.4,1.61,17.37,17.37,0,0,1-3.43,5.09,20.63,20.63,0,0,1-4.74,3.63,21.72,21.72,0,0,1-5.6,2.17,26,26,0,0,1-6,.71Q384,121,378.81,105.7Z" transform="translate(-2.72 103)"/><path class="j" d="M430.26,117.81a3.5,3.5,0,0,1,.2-1.11l22.6-62.65q1-3,3.63-3t3.63,3l22.4,62.65a3.56,3.56,0,0,1,.2,1.11,2.41,2.41,0,0,1-.81,1.92,2.82,2.82,0,0,1-1.92.71,2.86,2.86,0,0,1-2.82-2l-5.85-16.24H441.66l-5.85,16.24a2.86,2.86,0,0,1-2.83,2,2.82,2.82,0,0,1-1.92-.71A2.41,2.41,0,0,1,430.26,117.81ZM469.6,96.62L456.79,60.71h-0.3L443.57,96.62h26Z" transform="translate(-2.72 103)"/><path class="j" d="M496.13,54.66q0-3.63,3.43-3.63,2.52,0,3.83,3.13l21.29,47.41h0.4l21-47.41Q547.38,51,549.9,51q3.43,0,3.43,3.63V117.3a3.14,3.14,0,0,1-.81,2.32,2.87,2.87,0,0,1-2.12.81,2.74,2.74,0,0,1-2-.81,3.14,3.14,0,0,1-.81-2.32V65.45h-0.4l-18.66,41.26a9.1,9.1,0,0,1-1.77,2.77,2.89,2.89,0,0,1-2,.66,3,3,0,0,1-2.07-.66,9.09,9.09,0,0,1-1.76-2.77L502.39,65.45h-0.5V117.3a3.14,3.14,0,0,1-.81,2.32,2.87,2.87,0,0,1-2.12.81,2.74,2.74,0,0,1-2-.81,3.14,3.14,0,0,1-.81-2.32V54.66Z" transform="translate(-2.72 103)"/><path class="j" d="M575.12,120.43a2.74,2.74,0,0,1-2-.81,3.14,3.14,0,0,1-.81-2.32V54.15A2.41,2.41,0,0,1,575,51.43H596.2q9.78,0,15.43,5.2t5.65,14.27q0,9.08-5.65,14.22T596.2,90.27H578.65a0.53,0.53,0,0,0-.6.61V117.3a3.14,3.14,0,0,1-.81,2.32A2.87,2.87,0,0,1,575.12,120.43ZM596,84.82q7.57,0,11.55-3.63t4-10.29q0-6.66-4-10.34T596,56.87H578.65a0.53,0.53,0,0,0-.6.61V84.21a0.53,0.53,0,0,0,.6.61H596Z" transform="translate(-2.72 103)"/><path class="k" d="M444.78,144.19a1.35,1.35,0,0,1,.35-1,1.18,1.18,0,0,1,.87-0.35,1.23,1.23,0,0,1,.91.35,1.35,1.35,0,0,1,.35,1v25.68a0.23,0.23,0,0,0,.26.26h13.95a1.26,1.26,0,0,1,.93.33,1.26,1.26,0,0,1,0,1.69,1.26,1.26,0,0,1-.93.33h-15.5a1,1,0,0,1-1.17-1.17V144.19Z" transform="translate(-2.72 103)"/><path class="k" d="M465.26,171.52a1.5,1.5,0,0,1,.09-0.48l9.7-26.9a1.6,1.6,0,0,1,1.56-1.3,1.65,1.65,0,0,1,1.56,1.3l9.62,26.9a1.53,1.53,0,0,1,.09.48,1,1,0,0,1-.35.82,1.21,1.21,0,0,1-.82.3,1.23,1.23,0,0,1-1.21-.87l-2.51-7H470.16l-2.51,7a1.23,1.23,0,0,1-1.21.87,1.21,1.21,0,0,1-.82-0.3A1,1,0,0,1,465.26,171.52Zm16.89-9.1L476.66,147h-0.13L471,162.43h11.17Z" transform="translate(-2.72 103)"/><path class="k" d="M505.41,172.65a1.18,1.18,0,0,1-.87-0.35,1.35,1.35,0,0,1-.35-1V144.19a1,1,0,0,1,1.17-1.17h9.09a9.41,9.41,0,0,1,6.63,2.23,8.93,8.93,0,0,1,0,12.24,9.47,9.47,0,0,1-6.63,2.21h-7.54a0.23,0.23,0,0,0-.26.26v11.35a1.35,1.35,0,0,1-.35,1A1.23,1.23,0,0,1,505.41,172.65Zm9-15.29a7.12,7.12,0,0,0,5-1.56,5.68,5.68,0,0,0,1.71-4.42,5.74,5.74,0,0,0-1.71-4.44,7.06,7.06,0,0,0-5-1.58h-7.45a0.23,0.23,0,0,0-.26.26V157.1a0.23,0.23,0,0,0,.26.26h7.45Z" transform="translate(-2.72 103)"/><path class="k" d="M529.54,144.19a1.35,1.35,0,0,1,.35-1,1.18,1.18,0,0,1,.87-0.35,1.23,1.23,0,0,1,.91.35,1.35,1.35,0,0,1,.35,1v25.68a0.23,0.23,0,0,0,.26.26h13.95a1.26,1.26,0,0,1,.93.33,1.26,1.26,0,0,1,0,1.69,1.26,1.26,0,0,1-.93.33h-15.5a1,1,0,0,1-1.17-1.17V144.19Z" transform="translate(-2.72 103)"/><path class="k" d="M550,171.52a1.5,1.5,0,0,1,.09-0.48l9.7-26.9a1.6,1.6,0,0,1,1.56-1.3,1.65,1.65,0,0,1,1.56,1.3l9.62,26.9a1.53,1.53,0,0,1,.09.48,1,1,0,0,1-.35.82,1.21,1.21,0,0,1-.82.3,1.23,1.23,0,0,1-1.21-.87l-2.51-7H554.92l-2.51,7a1.23,1.23,0,0,1-1.21.87,1.21,1.21,0,0,1-.82-0.3A1,1,0,0,1,550,171.52Zm16.89-9.1L561.42,147h-0.13l-5.54,15.42h11.17Z" transform="translate(-2.72 103)"/><path class="k" d="M582.64,172.65a1.18,1.18,0,0,1-.87-0.35,1.35,1.35,0,0,1-.35-1V145.62a0.23,0.23,0,0,0-.26-0.26h-7.8a1.26,1.26,0,0,1-.93-0.33,1.26,1.26,0,0,1,0-1.69,1.26,1.26,0,0,1,.93-0.33H592a1.26,1.26,0,0,1,.93.33,1.26,1.26,0,0,1,0,1.69,1.26,1.26,0,0,1-.93.33h-7.8a0.23,0.23,0,0,0-.26.26v25.68a1.35,1.35,0,0,1-.35,1A1.23,1.23,0,0,1,582.64,172.65Z" transform="translate(-2.72 103)"/><path class="k" d="M592.69,171.52a1.5,1.5,0,0,1,.09-0.48l9.7-26.9a1.6,1.6,0,0,1,1.56-1.3,1.65,1.65,0,0,1,1.56,1.3l9.62,26.9a1.53,1.53,0,0,1,.09.48,1,1,0,0,1-.35.82,1.21,1.21,0,0,1-.82.3,1.23,1.23,0,0,1-1.21-.87l-2.51-7H597.58l-2.51,7a1.23,1.23,0,0,1-1.21.87,1.21,1.21,0,0,1-.82-0.3A1,1,0,0,1,592.69,171.52Zm16.89-9.1L604.08,147h-0.13l-5.54,15.42h11.17Z" transform="translate(-2.72 103)"/></svg>