<svg id="Capa_1" data-name="Capa 1" xmlns="http://www.w3.org/2000/svg" viewBox="0 0 183.87 291.19"><defs><style>.cls-1{fill:#fefefe;}.cls-2{fill:#47ce84;}.cls-3{fill:#fbfdfc;}</style></defs><title>marker</title><path class="cls-1" d="M4.47,150.2c0-43.84.14-87.68-.11-131.52C4.3,9.51,3.73,3.75,17,4c52.73,1.08,105.51.77,158.26,0.17C185.38,4.07,188.1,5.65,188,16.58q-0.91,133.74,0,267.49c0.06,10.05-2.77,11.19-11.73,11.11q-80.24-.72-160.49,0c-9.24.09-11.75-1.43-11.6-11.26C4.86,239.37,4.47,194.78,4.47,150.2Z" transform="translate(-4.16 -4.01)"/><path class="cls-2" d="M89.35,264.23C63,208.17,36,157.69,23.88,101.51,18,74.26,30.68,51.61,54.18,36.93c24.33-15.19,49.69-14.22,73.62,1.44,23.06,15.09,33.47,42.78,26.47,70.52-3.81,15.09-9.18,29.85-14.78,44.4A1078.43,1078.43,0,0,1,89.35,264.23Z" transform="translate(-4.16 -4.01)"/><path class="cls-3" d="M90,63.44C105.55,63.65,119.9,78,119.89,93.33c0,16-13.51,28.74-30.27,28.61S59.71,109,59.95,92.81C60.18,76.88,74.16,63.22,90,63.44Z" transform="translate(-4.16 -4.01)"/></svg>